<?xml version="1.0" standalone="no"?>
<!DOCTYPE svg PUBLIC "-//W3C//DTD SVG 20010904//EN"
 "http://www.w3.org/TR/2001/REC-SVG-20010904/DTD/svg10.dtd">
<svg version="1.0" xmlns="http://www.w3.org/2000/svg"
 width="225.000000pt" height="225.000000pt" viewBox="0 0 225.000000 225.000000"
 preserveAspectRatio="xMidYMid meet">
<metadata>
Created by potrace 1.16, written by Peter Selinger 2001-2019
</metadata>
<g transform="translate(0.000000,225.000000) scale(0.100000,-0.100000)"
fill="#000000" stroke="none">
<path d="M1032 2083 c2 -23 8 -29 36 -31 l32 -3 0 -125 0 -124 25 0 25 0 0
124 0 125 33 3 c27 2 33 8 35 31 l3 27 -96 0 -96 0 3 -27z"/>
<path d="M872 2075 c-45 -12 -85 -24 -87 -27 -3 -3 -1 -17 6 -31 10 -22 15
-24 37 -16 13 5 26 8 27 7 2 -2 17 -55 35 -118 18 -63 33 -116 35 -118 1 -1
14 2 28 7 l25 10 -29 108 c-16 59 -29 113 -29 119 0 7 11 15 25 18 18 5 25 13
25 31 0 13 -3 26 -7 28 -5 2 -45 -6 -91 -18z"/>
<path d="M1286 2092 c-3 -3 -6 -16 -6 -28 0 -17 7 -25 25 -30 31 -8 31 -15 -4
-142 l-29 -103 26 -10 c13 -5 27 -8 29 -6 2 3 17 56 34 118 17 63 32 115 33
117 2 1 15 -2 28 -7 22 -8 27 -6 37 16 7 14 9 28 7 31 -10 9 -174 50 -180 44z"/>
<path d="M630 1974 c-41 -25 -76 -47 -77 -48 -1 -1 6 -12 16 -25 17 -23 19
-23 43 -7 l26 17 58 -102 c33 -56 64 -104 69 -106 6 -2 19 3 29 10 17 13 15
20 -45 122 -35 60 -58 110 -53 112 30 10 42 28 33 51 -4 12 -12 22 -17 22 -4
0 -41 -21 -82 -46z"/>
<path d="M1521 1998 c-9 -23 3 -41 33 -51 5 -2 -18 -52 -53 -112 -60 -102 -62
-109 -45 -122 10 -7 23 -12 29 -10 5 2 36 50 69 106 l58 102 26 -17 c24 -16
26 -16 42 7 17 22 17 23 -4 39 -26 20 -131 80 -140 80 -4 0 -11 -10 -15 -22z"/>
<path d="M429 1821 c-32 -33 -59 -64 -59 -70 0 -6 9 -15 21 -21 16 -9 25 -8
40 6 19 17 22 15 107 -69 l87 -87 23 22 22 23 -87 87 c-84 85 -86 88 -69 107
14 15 15 24 6 40 -6 12 -15 21 -21 21 -6 0 -37 -27 -70 -59z"/>
<path d="M1730 1859 c-9 -16 -8 -25 6 -40 17 -19 15 -22 -69 -107 l-87 -87 22
-23 23 -22 87 87 c85 84 88 86 107 69 15 -14 24 -15 40 -6 12 6 21 15 21 21 0
6 -27 37 -59 70 -33 32 -64 59 -70 59 -6 0 -15 -9 -21 -21z"/>
<path d="M303 1666 c-44 -66 -74 -126 -69 -134 3 -5 15 -12 26 -15 16 -4 24 1
32 19 14 30 13 30 136 -43 90 -52 96 -55 109 -37 7 10 12 23 10 29 -2 5 -50
36 -106 69 -101 58 -102 58 -86 82 19 30 19 29 -8 47 -22 14 -24 13 -44 -17z"/>
<path d="M1901 1681 c-22 -17 -23 -19 -7 -43 l17 -25 -106 -62 c-58 -34 -105
-65 -105 -69 0 -5 6 -16 13 -26 13 -18 20 -15 121 44 59 34 108 61 110 59 2
-2 8 -14 15 -26 11 -21 44 -22 57 -2 5 8 -49 113 -78 151 -12 16 -14 16 -37
-1z"/>
<path d="M991 1614 c-30 -8 -77 -27 -105 -42 -65 -34 -174 -142 -208 -208 -77
-144 -77 -334 0 -478 34 -65 143 -174 208 -208 143 -77 328 -77 477 -2 67 34
177 144 211 211 75 149 75 334 -2 477 -34 65 -143 174 -208 208 -105 56 -257
73 -373 42z m301 -131 c85 -40 151 -105 191 -191 29 -61 32 -75 32 -167 0 -92
-3 -106 -32 -167 -40 -85 -106 -151 -191 -191 -61 -29 -75 -32 -167 -32 -92 0
-106 3 -167 32 -85 40 -151 106 -191 191 -29 61 -32 75 -32 167 0 92 3 106 32
167 71 151 204 231 373 225 71 -2 97 -8 152 -34z"/>
<path d="M1090 1433 c-35 -6 -120 -34 -120 -39 0 -3 14 -17 30 -31 24 -20 30
-33 30 -65 0 -88 -99 -130 -161 -69 l-29 29 -11 -41 c-19 -70 -14 -160 14
-219 113 -243 452 -242 565 2 34 73 35 172 2 247 -51 119 -200 205 -320 186z"/>
<path d="M186 1418 c-39 -140 -39 -138 0 -138 17 0 25 7 30 25 3 14 11 25 18
25 6 0 60 -13 119 -29 l108 -29 10 25 c5 14 8 27 7 28 -2 2 -55 17 -118 35
-63 18 -116 33 -118 35 -1 1 2 14 7 27 8 22 6 27 -15 37 -14 6 -27 11 -29 11
-3 0 -11 -24 -19 -52z"/>
<path d="M2013 1458 c-18 -9 -20 -14 -12 -36 5 -13 8 -26 7 -27 -2 -2 -55 -17
-118 -35 -63 -18 -116 -33 -118 -35 -1 -1 2 -14 7 -28 l10 -25 108 29 c59 16
113 29 119 29 7 0 15 -12 18 -26 5 -20 12 -25 34 -22 32 4 32 15 1 121 -21 71
-22 72 -56 55z"/>
<path d="M140 1126 l0 -96 30 0 c28 0 30 3 30 35 l0 35 125 0 125 0 0 25 0 25
-124 0 -125 0 -3 33 c-2 27 -8 33 -30 35 l-28 3 0 -95z"/>
<path d="M2057 1213 c-4 -3 -7 -19 -7 -35 l0 -28 -125 0 -125 0 0 -25 0 -25
124 0 125 0 3 -32 c2 -28 8 -34 31 -36 l27 -3 0 95 c0 94 -1 96 -23 96 -13 0
-27 -3 -30 -7z"/>
<path d="M355 949 c-124 -35 -131 -35 -139 -4 -5 18 -13 25 -30 25 -12 0 -25
-3 -28 -6 -6 -6 35 -170 44 -180 3 -2 17 0 31 7 22 10 24 15 16 37 -5 13 -8
26 -7 27 3 3 110 33 196 55 38 10 42 14 36 33 -3 12 -9 25 -13 28 -3 3 -51 -7
-106 -22z"/>
<path d="M1779 952 c-5 -13 -8 -27 -6 -29 3 -2 56 -17 118 -34 63 -17 115 -32
117 -33 1 -2 -2 -15 -7 -28 -8 -22 -6 -27 15 -37 14 -6 27 -11 29 -11 5 0 43
128 47 160 2 21 -2 26 -24 28 -22 3 -29 -2 -34 -22 -8 -32 -14 -32 -142 3
l-103 29 -10 -26z"/>
<path d="M415 750 c-55 -33 -103 -60 -106 -60 -3 0 -11 11 -17 24 -8 18 -16
23 -32 19 -11 -3 -23 -9 -26 -14 -5 -9 44 -104 76 -145 16 -21 17 -21 39 -4
23 16 23 18 7 43 l-17 25 101 57 c55 32 103 61 106 66 6 10 -13 49 -24 48 -4
0 -52 -27 -107 -59z"/>
<path d="M1710 790 c-6 -11 -9 -24 -6 -29 3 -5 51 -34 106 -65 l100 -57 -15
-29 c-14 -26 -13 -29 10 -44 24 -16 24 -16 65 53 55 96 56 99 29 110 -24 9
-42 -3 -52 -33 -2 -5 -51 18 -110 52 -59 34 -109 62 -111 62 -3 0 -10 -9 -16
-20z"/>
<path d="M538 583 c-85 -85 -88 -86 -107 -69 -15 14 -23 15 -40 6 -12 -6 -21
-15 -21 -21 0 -6 27 -37 59 -70 33 -32 64 -59 70 -59 6 0 15 9 21 21 9 16 8
25 -6 40 -17 19 -15 22 69 107 l88 88 -24 22 -23 21 -86 -86z"/>
<path d="M1602 648 l-22 -23 87 -87 c84 -85 86 -88 69 -107 -14 -15 -15 -24
-6 -40 6 -12 15 -21 21 -21 14 0 129 115 129 129 0 6 -9 15 -21 21 -16 9 -25
8 -40 -6 -19 -17 -22 -15 -107 69 l-87 87 -23 -22z"/>
<path d="M699 445 l-62 -106 -25 17 c-24 16 -26 15 -42 -7 -17 -22 -17 -23 4
-39 41 -32 136 -81 145 -76 20 13 19 46 -2 57 -12 7 -24 13 -26 15 -2 2 25 51
59 110 59 101 62 108 44 121 -10 7 -21 13 -26 13 -4 0 -35 -47 -69 -105z"/>
<path d="M1456 537 c-17 -13 -15 -20 45 -122 35 -60 58 -110 53 -112 -30 -10
-42 -28 -33 -52 11 -27 14 -26 110 29 69 41 69 41 53 65 -15 23 -18 24 -44 10
l-29 -15 -58 102 c-32 56 -63 103 -68 105 -6 2 -19 -3 -29 -10z"/>
<path d="M890 360 c-18 -66 -34 -120 -36 -120 -1 0 -14 4 -27 9 -21 8 -26 6
-36 -15 -6 -14 -11 -27 -11 -29 0 -5 128 -43 160 -47 21 -2 26 2 28 24 3 22
-2 29 -22 34 -14 3 -26 11 -26 18 0 6 13 60 29 119 l29 108 -25 10 c-13 5 -26
9 -27 9 -2 0 -18 -54 -36 -120z"/>
<path d="M1294 470 l-22 -8 29 -104 c35 -128 35 -134 3 -142 -20 -5 -25 -12
-22 -34 2 -22 7 -26 28 -24 32 4 160 42 160 47 0 2 -5 15 -11 29 -10 21 -15
23 -37 15 -13 -5 -26 -8 -27 -7 -3 3 -33 110 -55 196 -11 45 -13 46 -46 32z"/>
<path d="M1100 326 l0 -125 -32 -3 c-28 -2 -34 -8 -36 -30 l-3 -28 96 0 96 0
-3 28 c-2 22 -8 28 -35 30 l-33 3 0 125 0 124 -25 0 -25 0 0 -124z"/>
</g>
</svg>
